<svg xmlns="http://www.w3.org/2000/svg" viewBox="0 0 512 512" role="img" aria-labelledby="title desc">
  <title id="title">Pizza Pulse logo</title>
  <desc id="desc">A pizza slice with cheese, pepperoni, basil, and a delivery motion mark.</desc>
  <defs>
    <linearGradient id="cheese" x1="138" x2="374" y1="116" y2="428" gradientUnits="userSpaceOnUse">
      <stop offset="0" stop-color="#ffd96a"/>
      <stop offset="1" stop-color="#f7a72c"/>
    </linearGradient>
    <linearGradient id="crust" x1="110" x2="392" y1="74" y2="148" gradientUnits="userSpaceOnUse">
      <stop offset="0" stop-color="#b95723"/>
      <stop offset="1" stop-color="#7f2f17"/>
    </linearGradient>
    <filter id="shadow" x="-20%" y="-20%" width="140%" height="150%" color-interpolation-filters="sRGB">
      <feDropShadow dx="0" dy="18" stdDeviation="14" flood-color="#5d1f12" flood-opacity=".22"/>
    </filter>
  </defs>
  <rect width="512" height="512" rx="112" fill="#fff7ed"/>
  <g filter="url(#shadow)">
    <path d="M91 145c27-52 92-82 166-72 76 10 135 58 153 117 6 19-12 37-30 29-83-37-175-49-267-35-19 3-31-22-22-39Z" fill="url(#crust)"/>
    <path d="M119 176c87-13 174-1 253 35L214 428c-10 14-32 5-29-12l14-79-66-39 42-54-62-29c-18-8-14-36 6-39Z" fill="url(#cheese)"/>
    <path d="M119 176c87-13 174-1 253 35" fill="none" stroke="#fff1c8" stroke-width="18" stroke-linecap="round"/>
    <circle cx="219" cy="221" r="24" fill="#c93426"/>
    <circle cx="294" cy="251" r="22" fill="#c93426"/>
    <circle cx="232" cy="321" r="20" fill="#c93426"/>
    <path d="M319 177c28 9 54 20 78 34" fill="none" stroke="#e8752b" stroke-width="22" stroke-linecap="round"/>
    <path d="M275 158c12 3 24 6 36 10" fill="none" stroke="#e8752b" stroke-width="16" stroke-linecap="round"/>
    <path d="M272 350c38 4 76 0 113-12" fill="none" stroke="#188b63" stroke-width="18" stroke-linecap="round"/>
    <path d="M318 385c29 0 57-5 83-15" fill="none" stroke="#188b63" stroke-width="18" stroke-linecap="round" opacity=".85"/>
    <path d="M156 214c-21 5-40 13-59 24" fill="none" stroke="#d74623" stroke-width="18" stroke-linecap="round"/>
    <path d="M138 262c-18 8-35 18-50 31" fill="none" stroke="#d74623" stroke-width="14" stroke-linecap="round" opacity=".85"/>
  </g>
</svg>
